# xmcd
#
# Track frame offsets: 
#        150
#        21762
#        42495
#        66553
#        84264
#        106507
#        132534
#        144580
#        165034
#        190191
#        209801
#        233047
#
# Disc length: 3392 seconds
#
# Revision: 0
# Processed by: cddbd v1.5.2PL0 Copyright (c) Steve Scherf et al.
# Submitted via: ExactAudioCopyFreeDBPlugin 1.0
#
DISCID=a20d3e0c
DTITLE=Andy Martin - Proof Of Identity
DYEAR=1999
DGENRE=Rock/Blues/Folk
TTITLE0=Upwardly Mobile
TTITLE1=Computer Carol
TTITLE2=Blues in the City
TTITLE3=Jealousy Blues
TTITLE4=The Man from Rolling Fork
TTITLE5=Fool's Parade (feat. Mike Turk)
TTITLE6=Wet Patch Shuffle
TTITLE7=I Need a New Car
TTITLE8=On the Border
TTITLE9=Louisiana Blues Again
TTITLE10=Bobby and Gene
TTITLE11=Second Chance
EXTD=
EXTT0=
EXTT1=
EXTT2=
EXTT3=
EXTT4=
EXTT5=
EXTT6=
EXTT7=
EXTT8=
EXTT9=
EXTT10=
EXTT11=
PLAYORDER=
